<svg width="422" height="64" viewBox="0 0 422 64" fill="none" xmlns="http://www.w3.org/2000/svg" xmlns:xlink="http://www.w3.org/1999/xlink">
<path d="M0.245,30.582C0.245,13.621 13.995,-0.128 30.956,-0.128L389.749,-0.128C406.709,-0.128 420.459,13.621 420.459,30.582L420.459,30.582C420.459,47.543 406.709,61.292 389.749,61.292L30.956,61.292C13.995,61.292 0.245,47.543 0.245,30.582L0.245,30.582Z" transform="rotate(0 210.352 30.582)" fill="#D9D9D9"/>
<path d="M318.735,31.554C318.735,14.594 332.484,0.844 349.445,0.844L388.876,0.844C405.837,0.844 419.586,14.594 419.586,31.554L419.586,31.554C419.586,48.515 405.837,62.264 388.876,62.264L349.445,62.264C332.484,62.264 318.735,48.515 318.735,31.554L318.735,31.554Z" transform="rotate(0 369.16 31.554)" fill="#C1C1C1"/>
<path d="M380.321,13.64C380.321,12.719 379.575,11.973 378.654,11.973C377.734,11.973 376.987,12.719 376.987,13.64L380.321,13.64ZM376.987,20.806C376.987,21.726 377.734,22.472 378.654,22.472C379.575,22.472 380.321,21.726 380.321,20.806L376.987,20.806ZM364.135,13.64C364.135,12.719 363.388,11.973 362.468,11.973C361.547,11.973 360.801,12.719 360.801,13.64L364.135,13.64ZM360.801,20.806C360.801,21.726 361.547,22.472 362.468,22.472C363.388,22.472 364.135,21.726 364.135,20.806L360.801,20.806ZM352.352,26.305C351.431,26.305 350.685,27.051 350.685,27.971C350.685,28.892 351.431,29.638 352.352,29.638L352.352,26.305ZM388.77,29.638C389.691,29.638 390.437,28.892 390.437,27.971C390.437,27.051 389.691,26.305 388.77,26.305L388.77,29.638ZM356.398,18.889L384.724,18.889L384.724,15.556L356.398,15.556L356.398,18.889ZM384.724,18.889C386.235,18.889 387.104,19.932 387.104,20.806L390.437,20.806C390.437,17.721 387.683,15.556 384.724,15.556L384.724,18.889ZM387.104,20.806L387.104,45.885L390.437,45.885L390.437,20.806L387.104,20.806ZM387.104,45.885C387.104,46.759 386.235,47.802 384.724,47.802L384.724,51.135C387.683,51.135 390.437,48.969 390.437,45.885L387.104,45.885ZM384.724,47.802L356.398,47.802L356.398,51.135L384.724,51.135L384.724,47.802ZM356.398,47.802C354.887,47.802 354.018,46.759 354.018,45.885L350.685,45.885C350.685,48.969 353.439,51.135 356.398,51.135L356.398,47.802ZM354.018,45.885L354.018,20.806L350.685,20.806L350.685,45.885L354.018,45.885ZM354.018,20.806C354.018,19.932 354.887,18.889 356.398,18.889L356.398,15.556C353.439,15.556 350.685,17.721 350.685,20.806L354.018,20.806ZM376.987,13.64L376.987,20.806L380.321,20.806L380.321,13.64L376.987,13.64ZM360.801,13.64L360.801,20.806L364.135,20.806L364.135,13.64L360.801,13.64ZM352.352,29.638L388.77,29.638L388.77,26.305L352.352,26.305L352.352,29.638Z" transform="rotate(0 370.561 31.554)" fill="#667085"/>
</svg>
